<svg width="103" height="9" viewBox="0 0 103 9" fill="none" xmlns="http://www.w3.org/2000/svg">
<g clip-path="url(#clip0_0_301)">
<path d="M25.2407 5.82355H1.24216C0.546551 5.82355 0 5.24119 0 4.50002C0 3.75884 0.546551 3.17649 1.24216 3.17649H25.2407C25.9363 3.17649 26.4829 3.75884 26.4829 4.50002C26.4829 5.24119 25.8866 5.82355 25.2407 5.82355Z" fill="#031317"/>
<path d="M101.758 5.82355H77.7593C77.0637 5.82355 76.5172 5.24119 76.5172 4.50002C76.5172 3.75884 77.0637 3.17649 77.7593 3.17649H101.758C102.453 3.17649 103 3.75884 103 4.50002C103 5.24119 102.453 5.82355 101.758 5.82355Z" fill="#031317"/>
<path d="M72.0951 8.57646L66.4805 2.22352C66.0333 1.6941 66.0333 0.847046 66.5302 0.370575C66.7786 0.105869 67.0767 -1.33514e-05 67.3748 -1.33514e-05C67.7226 -1.33514e-05 68.0208 0.15881 68.2692 0.423515L73.8838 6.77646C74.3309 7.30587 74.3309 8.15293 73.8341 8.6294C73.3372 9.15881 72.5422 9.10587 72.0951 8.57646Z" fill="#031317"/>
<path d="M66.3811 8.62941C65.8842 9.10588 65.0892 9.10588 64.642 8.57647L59.0275 2.22353C58.5803 1.69412 58.5803 0.847058 59.0772 0.370587C59.3256 0.105882 59.6237 -9.53674e-07 59.9218 -9.53674e-07C60.2696 -9.53674e-07 60.5678 0.158822 60.8162 0.423528L66.4308 6.77647C66.8779 7.30588 66.8779 8.15294 66.3811 8.62941Z" fill="#031317"/>
<path d="M58.8784 8.6294C58.3816 9.10587 57.5866 9.10587 57.1394 8.57646L52.3695 3.12352L47.5499 8.57646C47.1027 9.10587 46.3078 9.15881 45.8109 8.6294C45.314 8.15293 45.2643 7.30587 45.7612 6.77646L51.3758 0.423515C51.6242 0.15881 51.972 -1.33514e-05 52.2701 -1.33514e-05C52.3198 -1.33514e-05 52.3198 -1.33514e-05 52.3695 -1.33514e-05C52.4192 -1.33514e-05 52.4192 -1.33514e-05 52.4689 -1.33514e-05C52.8167 -1.33514e-05 53.1148 0.15881 53.3632 0.423515L58.9778 6.77646C59.425 7.30587 59.3753 8.15293 58.8784 8.6294Z" fill="#031317"/>
<path d="M30.905 8.57646C30.4578 9.10587 29.6628 9.15881 29.1659 8.6294C28.6691 8.15293 28.6194 7.30587 29.1163 6.77646L34.7308 0.423515C34.9793 0.15881 35.3271 -1.33514e-05 35.6252 -1.33514e-05C35.9233 -1.33514e-05 36.2214 0.105869 36.4698 0.370575C36.9667 0.847046 37.0164 1.6941 36.5195 2.22352L30.905 8.57646Z" fill="#031317"/>
<path d="M38.4077 8.57646C37.9605 9.10587 37.1655 9.15881 36.6686 8.6294C36.1718 8.15293 36.1221 7.30587 36.6189 6.77646L42.2335 0.423515C42.4819 0.15881 42.8297 -1.33514e-05 43.1279 -1.33514e-05C43.426 -1.33514e-05 43.7241 0.105869 43.9725 0.370575C44.4694 0.847046 44.5191 1.6941 44.0222 2.22352L38.4077 8.57646Z" fill="#031317"/>
</g>
<defs>
<clipPath id="clip0_0_301">
<rect width="103" height="9" fill="white" transform="matrix(1 0 0 -1 0 9)"/>
</clipPath>
</defs>
</svg>
