<svg xmlns="http://www.w3.org/2000/svg" viewBox="0 0 73.81 83.55"><g id="Layer_2" data-name="Layer 2"><g id="Layer_1-2" data-name="Layer 1"><path d="M27.13,61h2.95a1.2,1.2,0,0,0,1.39-1l1.74-5.33a3.85,3.85,0,0,1,7.41,0c.57,1.78,1.16,3.56,1.74,5.33a1.19,1.19,0,0,0,1.36,1h5.73A3.83,3.83,0,0,1,51.77,68c-1.5,1.12-3,2.21-4.54,3.31-.86.63-.94.87-.62,1.86l1.71,5.27a3.84,3.84,0,0,1-5.9,4.37c-1.51-1.08-3-2.18-4.5-3.27-.87-.63-1.15-.63-2,0-1.5,1.09-3,2.19-4.5,3.26a3.84,3.84,0,0,1-6-1.88,3.76,3.76,0,0,1,0-2.39c.58-1.82,1.18-3.63,1.77-5.44a1.19,1.19,0,0,0-.54-1.69c-1.54-1.12-3.1-2.24-4.63-3.38a3.59,3.59,0,0,1-1.49-4,3.51,3.51,0,0,1,3.08-2.9,25.08,25.08,0,0,1,3.47,0Zm.45,2.72h-3a1.2,1.2,0,0,0-1.3.75c-.21.55,0,1,.58,1.42l4.5,3.27a3.92,3.92,0,0,1,1.48,4.75c-.59,1.75-1.14,3.52-1.73,5.27a1.12,1.12,0,0,0,.38,1.39,1.14,1.14,0,0,0,1.44-.11q2.31-1.7,4.64-3.37a3.78,3.78,0,0,1,4.68,0c1.54,1.11,3.07,2.21,4.6,3.34a1.18,1.18,0,0,0,1.48.16c.49-.32.6-.77.37-1.49-.57-1.74-1.13-3.48-1.71-5.22a3.89,3.89,0,0,1,1.48-4.7c1.54-1.12,3.07-2.26,4.64-3.36a1.12,1.12,0,0,0-.05-1.92,2,2,0,0,0-.89-.16H43.65A3.75,3.75,0,0,1,39.79,61q-.91-2.75-1.8-5.5a1.12,1.12,0,0,0-2.16,0c0,.11-.07.22-.1.33-.58,1.77-1.15,3.56-1.75,5.33a3.73,3.73,0,0,1-3.68,2.64Z"/><path d="M22.94,58.75H20.62a3.34,3.34,0,0,1-3.32-2.39c-.51-1.5-1-3-1.47-4.51-.12-.38-.29-.68-.74-.67s-.61.32-.73.7c-.44,1.41-.91,2.82-1.37,4.23a3.41,3.41,0,0,1-3.61,2.64H4.92c-.39,0-.76,0-.91.45s.07.72.42,1c1.23.87,2.44,1.76,3.66,2.65A3.44,3.44,0,0,1,9.44,67C9,68.47,8.52,69.91,8,71.33c-.13.39-.16.72.2,1s.69.1,1-.13c1.18-.87,2.38-1.73,3.56-2.59a3.45,3.45,0,0,1,4.57,0L21,72.19a1.38,1.38,0,1,1-1.58,2.22c-1.22-.88-2.45-1.75-3.65-2.66a1,1,0,0,0-1.3,0c-1.29,1-2.57,1.92-3.89,2.83a3.36,3.36,0,0,1-5.2-1.94,4.49,4.49,0,0,1,.12-2.15c.38-1.45.88-2.87,1.37-4.29A.92.92,0,0,0,6.47,65C5.21,64.12,4,63.2,2.72,62.29a3.42,3.42,0,0,1,2-6.24c1.53,0,3.05,0,4.58,0a1,1,0,0,0,1.11-.78c.45-1.49.95-3,1.45-4.45a3.41,3.41,0,0,1,6.52,0c.47,1.43.93,2.86,1.39,4.29.27.83.38.92,1.23.92h4.35c1,0,1.59.52,1.59,1.36s-.62,1.34-1.61,1.34H22.94Z"/><path d="M66.46,58.75H64.2a3.36,3.36,0,0,1-3.3-2.43c-.48-1.44-.94-2.89-1.41-4.34-.12-.39-.24-.8-.77-.8s-.64.39-.77.79c-.44,1.39-.9,2.78-1.35,4.18a3.42,3.42,0,0,1-3.53,2.6H48.44a1.36,1.36,0,1,1,0-2.7H53A.94.94,0,0,0,54,55.29c.46-1.49,1-3,1.44-4.45a3.42,3.42,0,0,1,6.53,0c.49,1.48,1,3,1.45,4.45a.94.94,0,0,0,1,.77c1.55,0,3.09,0,4.64,0a3.42,3.42,0,0,1,2,6.24c-1.25.91-2.49,1.83-3.75,2.72A.91.91,0,0,0,67,66.2c.49,1.42.93,2.86,1.4,4.29a3.43,3.43,0,0,1-1.07,4,3.37,3.37,0,0,1-4.23,0c-1.23-.88-2.45-1.76-3.65-2.67a1,1,0,0,0-1.4,0c-1.23.94-2.48,1.84-3.75,2.72a1.32,1.32,0,0,1-2.12-.74,1.24,1.24,0,0,1,.46-1.39c1.43-1.06,2.84-2.14,4.32-3.12a3.21,3.21,0,0,1,3.85.17c1.3.91,2.57,1.86,3.85,2.79.48.34.94.31,1.13-.11a1.15,1.15,0,0,0,0-.71c-.46-1.48-.94-2.94-1.42-4.41a3.42,3.42,0,0,1,1.33-4.13c1.22-.89,2.43-1.78,3.66-2.65.36-.26.63-.54.46-1s-.53-.44-.91-.44Z"/><path d="M36.37,36.31c-2.86,0-5.72-.13-8.57,0a8.18,8.18,0,0,0-7.74,8.5c0,.49,0,1,0,1.45a1.38,1.38,0,0,1-1.32,1.3,1.35,1.35,0,0,1-1.39-1.22,12.11,12.11,0,0,1,1.81-7.85,10.61,10.61,0,0,1,9-4.93q8.34-.11,16.69,0A11,11,0,0,1,55.68,44.67c0,.5,0,1,0,1.51a1.37,1.37,0,1,1-2.73,0c0-1,0-2.09-.15-3.11a8.09,8.09,0,0,0-7.27-6.72c-2.52-.16-5.06-.08-7.59-.1H36.37Z"/><path d="M46,22.82a9.53,9.53,0,1,1-9.24-9.74A9.54,9.54,0,0,1,46,22.82Zm-9.52-7a6.79,6.79,0,1,0,6.78,6.82A6.79,6.79,0,0,0,36.51,15.83Z"/><path d="M29.71,46.12v2.77a1.37,1.37,0,1,1-2.74,0q0-2.84,0-5.67a1.37,1.37,0,1,1,2.74,0C29.72,44.23,29.71,45.17,29.71,46.12Z"/><path d="M43.3,46.1c0-1,0-2,0-3a1.39,1.39,0,0,1,1-1.31,1.28,1.28,0,0,1,1.44.58,2.12,2.12,0,0,1,.23,1c0,1.81,0,3.62,0,5.43a1.37,1.37,0,0,1-1.35,1.54,1.36,1.36,0,0,1-1.38-1.51C43.29,48,43.3,47,43.3,46.1Z"/><path d="M6.22,16.57a5.92,5.92,0,0,1,.45-.91c.8-1.06,1.61-2.11,2.45-3.14a1.37,1.37,0,1,1,2.06,1.79c-.82,1-1.61,2.07-2.41,3.1a1.35,1.35,0,0,1-1.59.5A1.54,1.54,0,0,1,6.22,16.57Z"/><path d="M73.81,37.11c0,.81-.08,1.62-.14,2.42A1.35,1.35,0,0,1,71,39.4c0-1.38,0-2.77,0-4.16a1.37,1.37,0,1,1,2.73,0c0,.63,0,1.27,0,1.91Z"/><path d="M20,4.12a1.36,1.36,0,0,1,1.4,1,1.3,1.3,0,0,1-.52,1.52Q19,7.75,17.18,8.87a1.33,1.33,0,0,1-1.79-.42,1.26,1.26,0,0,1,.23-1.76c1.29-.87,2.64-1.66,4-2.46A1.15,1.15,0,0,1,20,4.12Z"/><path d="M0,37.64c0-.4,0-.81,0-1.21a1.36,1.36,0,0,1,1.33-1.34,1.34,1.34,0,0,1,1.37,1.28c.08,1.39.15,2.77.21,4.16A1.33,1.33,0,0,1,1.75,42,1.32,1.32,0,0,1,.26,40.75c-.1-1-.17-2.07-.26-3.1Z"/><path d="M33.43,1.61a1.26,1.26,0,0,1-1,1.26c-1.45.32-2.9.61-4.36.88a1.37,1.37,0,0,1-1.46-1,1.27,1.27,0,0,1,.79-1.6C29,.79,30.53.47,32.11.23A1.28,1.28,0,0,1,33.43,1.61Z"/><path d="M66.82,15.55a1.42,1.42,0,0,1-.93,1.34,1.23,1.23,0,0,1-1.42-.34c-1-1.11-1.9-2.23-2.83-3.37a1.31,1.31,0,0,1,.15-1.78,1.26,1.26,0,0,1,1.82,0c1,1.14,2,2.34,3,3.53A2,2,0,0,1,66.82,15.55Z"/><path d="M5.1,24.16c0,.11-.06.28-.12.45-.39,1.25-.79,2.49-1.18,3.74a1.37,1.37,0,0,1-1.7,1.07,1.33,1.33,0,0,1-.92-1.78c.4-1.35.82-2.69,1.28-4A1.28,1.28,0,0,1,4,22.76,1.38,1.38,0,0,1,5.1,24.16Z"/><path d="M72.38,26.7a1.42,1.42,0,0,1-1.08,1.53,1.32,1.32,0,0,1-1.48-.75c-.53-1.41-1-2.82-1.51-4.25A1.32,1.32,0,0,1,69,21.71a1.26,1.26,0,0,1,1.67.32A20.84,20.84,0,0,1,72.38,26.7Z"/><path d="M52.73,3.54a1.76,1.76,0,0,1,.48.15c1.24.69,2.49,1.37,3.71,2.11a1.33,1.33,0,0,1,.48,1.94,1.4,1.4,0,0,1-1.95.35c-1.15-.67-2.31-1.32-3.46-2a1.37,1.37,0,0,1-.69-1.62A1.39,1.39,0,0,1,52.73,3.54Z"/><path d="M40.63,0c1.48.26,3,.5,4.43.8A1.3,1.3,0,0,1,46,2.39a1.29,1.29,0,0,1-1.5,1c-1-.13-2-.34-3-.5-.4-.07-.8-.1-1.2-.17A1.35,1.35,0,0,1,39.13,1.3,1.49,1.49,0,0,1,40.63,0Z"/><path d="M4,52.24a1.23,1.23,0,0,1-.95-.81c-.3-.7-.58-1.42-.84-2.15A1.34,1.34,0,0,1,3,47.62a1.31,1.31,0,0,1,1.72.64,19.63,19.63,0,0,1,.88,2.19C5.9,51.39,5.25,52.25,4,52.24Z"/><path d="M70.48,46.41c1.1,0,1.75.78,1.52,1.65a18,18,0,0,1-.83,2.33,1.31,1.31,0,0,1-1.71.68,1.33,1.33,0,0,1-.8-1.65c.24-.75.5-1.5.8-2.23A1.17,1.17,0,0,1,70.48,46.41Z"/></g></g></svg>