<svg xmlns="http://www.w3.org/2000/svg" viewBox="0 0 96.89 77.51"><g id="Layer_2" data-name="Layer 2"><g id="Layer_1-2" data-name="Layer 1"><path d="M26.75,77.49h68.4a1.81,1.81,0,0,0,1.74-.79v-.8a1.76,1.76,0,0,0-1.74-.78c-.89,0-1.76,0-2.68,0H91V48.61c0-1.38,0-2.81,0-4.22a1.18,1.18,0,0,0-1.16-1.32h0c-.67,0-1.14.52-1.18,1.33,0,.18,0,.35,0,.52V75.08h-4V29.63h4v3.18c0,1.48,0,3,0,4.52,0,.88.43,1.39,1.17,1.39h0c1,0,1.15-.76,1.15-1.4,0-2.9,0-5.34,0-7.8a2.11,2.11,0,0,0-2.24-2.28c-1.46,0-2.9,0-4.26,0a2.11,2.11,0,0,0-2.2,2.24c0,.25,0,.51,0,.76V75.07H78.65V39.65c0-1.75-.79-2.54-2.54-2.55H72.87c-2.3,0-2.92.63-2.93,2.92v35H66.3V45.74c0-2.08-.68-2.75-2.8-2.75-1,0-2.09,0-3.14,0-2.09,0-2.76.67-2.76,2.78q0,10.24,0,20.5v8.82H54V69.51c0-3.44,0-7,0-10.49a2.11,2.11,0,0,0-2.38-2.41c-1.13,0-2.29,0-3.41,0h-.29c-1.91,0-2.62.73-2.62,2.65V75.07H35.47l.9-1.06,1.49-1.75a15,15,0,0,0,3-5.35c.27-.85,0-1.47-.66-1.7-.88-.29-1.34.37-1.56,1a1.27,1.27,0,0,0-.06.18l-.06.18A12.78,12.78,0,0,1,24.42,75,12.47,12.47,0,0,1,16,69.7a13.08,13.08,0,0,1-2-10.11,12.74,12.74,0,0,1,15.82-9.53,12.53,12.53,0,0,1,9.13,9.5,1.68,1.68,0,0,0,.7,1.12,1.08,1.08,0,0,0,.86.07c.9-.26.83-1.17.71-1.7a14.56,14.56,0,0,0-8.06-10.19,23.73,23.73,0,0,0-3.56-1.28c-.57-.18-1.17-.36-1.76-.56L27.62,47V46c0-.79,0-1.68,0-2.56a1.27,1.27,0,0,1,.36-.83,7.37,7.37,0,0,1,4.37-2.56c11.07-1.89,18.9-10,20.45-21.28a2.42,2.42,0,0,0-.53-2.07,2.34,2.34,0,0,0-2-.58,23.55,23.55,0,0,0-10.83,4A24.33,24.33,0,0,0,28.67,37.75a5.31,5.31,0,0,1-.19.81c0,.11-.07.23-.1.35l-.06.24-.7-.17V36.16c0-1.26,0-2.56,0-3.84a1.43,1.43,0,0,0-.39-1,1.15,1.15,0,0,0-.81-.3,1.19,1.19,0,0,0-1.13,1.28c0,.28,0,.57,0,.85,0,.12,0,.25,0,.37V39l-.8.11,0-.24c0-.23-.09-.47-.13-.7-.09-.5-.18-1-.26-1.52A24.6,24.6,0,0,0,2.54,16.11l-.34,0a2.21,2.21,0,0,0-1.6.6A2.32,2.32,0,0,0,0,18.64a24.79,24.79,0,0,0,20.8,21.5,4.66,4.66,0,0,1,3.31,1.71,4.91,4.91,0,0,0,.39.41,5.22,5.22,0,0,1,.4.41,1.18,1.18,0,0,1,.34.72c0,.9,0,1.78,0,2.71v1.14l-.46.07-.39.06a15.13,15.13,0,0,0,2.33,30.12Zm45.62-38h3.86V75.12H72.37ZM60,45.36h3.87V75.09H60ZM47.63,59h3.88V75.1H47.63Zm-16-23.92c1.53-7.2,8.51-15.45,18.45-16.56l.31,0,0,.31A21.91,21.91,0,0,1,34,37.3l-.84.2.89-.94.42-.44L40,30.63,41.61,29l.15-.15.31-.31a1.19,1.19,0,0,0,.07-1.76,1.17,1.17,0,0,0-1.75.13c-1.68,1.66-3.48,3.46-5.51,5.51-.6.61-1.2,1.24-1.83,1.9l-1,1-.62.64Zm-10.83.06-.32-.3c-.19-.17-.35-.31-.5-.46l-5-5-2.1-2.09-.15-.15c-.13-.13-.24-.26-.37-.37a1.17,1.17,0,1,0-1.66,1.64c.44.48.92,1,1.38,1.4.18.18.37.36.55.55l2,2,3.61,3.62c.15.15.29.3.45.48l.26.29.55.59-.79-.17A21,21,0,0,1,7.92,30.67a20.48,20.48,0,0,1-5.38-11.8l0-.3.3,0c8.4.75,16.33,7.77,18.43,16.33l.2.83Z"/><path d="M65.76,31.35a1.37,1.37,0,0,1,.17-.17l2.32-2.32L83.61,13.48a3.76,3.76,0,0,0,.42-.59,3.77,3.77,0,0,1,.25-.41l.17-.27.22.24.61.64c.35.38.62.68.92.95a1.9,1.9,0,0,0,1.87.49,1.73,1.73,0,0,0,1.12-1.42C89.8,9.67,90.38,6.05,91,2.05A1.8,1.8,0,0,0,90.52.49,1.77,1.77,0,0,0,89.25,0a2.19,2.19,0,0,0-.36,0c-3.63.52-7.35,1.1-11.07,1.69A1.76,1.76,0,0,0,76.4,2.84a1.78,1.78,0,0,0,.41,1.79,10.8,10.8,0,0,0,1,1l.56.5.19.18-.18.18-.32.34-.46.49L52.88,32,51,33.93c-1.65,1.64-3.37,3.35-5,5a4.26,4.26,0,0,0-.17,5.65A4.62,4.62,0,0,0,49,46.26a3.24,3.24,0,0,0,2.46-.8c2.57-2.31,5-4.83,7.44-7.27l1.83-1.85a1,1,0,0,0-.14-1.44,1.07,1.07,0,0,0-1.49-.12,2.77,2.77,0,0,0-.52.46l-.14.15-2.68,2.67q-2.49,2.5-5,5a2,2,0,0,1-3,.24A1.81,1.81,0,0,1,47.18,42a2.46,2.46,0,0,1,.8-1.74l.45-.46.23-.22L80,8.28c.17-.16.34-.33.5-.5a1.77,1.77,0,0,0,0-2.76L80,4.52l-.61-.68,9.14-1.38-1.45,9-.34-.27c-2.24-1.74-2.4-1.74-4.34.2L64.2,29.59l-.17.16a5.51,5.51,0,0,0-.41.43,1.18,1.18,0,0,0,0,1.63,1.13,1.13,0,0,0,1.63,0C65.43,31.68,65.59,31.52,65.76,31.35Z"/><path d="M22.83,69h2.36l0,.23c.21,2.37.54,2.6,1.17,2.56,1.15-.08,1.22-.74,1.25-1.8,0-.24,0-.48,0-.72l0-.19.35,0,.28,0A3.87,3.87,0,0,0,28,61.22c-.5,0-1,0-1.5,0H25.3c-1.64,0-1.88-1-1.87-1.57s.25-1.53,1.89-1.54H30c.88,0,1.42-.46,1.42-1.16s-.55-1.16-1.43-1.18H27.7l0-.23c-.18-2.31-.52-2.55-1.21-2.5-1.12.07-1.18.66-1.2,1.69a6.23,6.23,0,0,1,0,.76l0,.18-.31.07-.26.05c-2.43.45-3.75,2.09-3.53,4.37.19,2,1.89,3.4,4.22,3.41.34,0,.69,0,1,0H27.5a2.13,2.13,0,0,1,1.6.53,1.35,1.35,0,0,1,.37,1c0,.55-.29,1.48-1.94,1.49H25.85c-1,0-2.05,0-3.07,0a1.17,1.17,0,0,0-1.29,1.19C21.5,68.51,22,68.93,22.83,69Z"/></g></g></svg>