<svg width="159" height="14" viewBox="0 0 159 14" fill="none" xmlns="http://www.w3.org/2000/svg">
<g clip-path="url(#clip0_0_165)">
<path d="M38.9638 4.94116H1.91751C0.843705 4.94116 0 5.84704 0 6.99999C0 8.15293 0.843705 9.05881 1.91751 9.05881H38.9638C40.0376 9.05881 40.8813 8.15293 40.8813 6.99999C40.8813 5.84704 39.9609 4.94116 38.9638 4.94116Z" fill="#C8CF4C"/>
<path d="M157.082 4.94116H120.036C118.962 4.94116 118.119 5.84704 118.119 6.99999C118.119 8.15293 118.962 9.05881 120.036 9.05881H157.082C158.156 9.05881 159 8.15293 159 6.99999C159 5.84704 158.156 4.94116 157.082 4.94116Z" fill="#C8CF4C"/>
<path d="M111.292 0.658809L102.625 10.5412C101.935 11.3647 101.935 12.6823 102.702 13.4235C103.085 13.8353 103.546 14 104.006 14C104.543 14 105.003 13.7529 105.386 13.3412L114.054 3.45881C114.744 2.63528 114.744 1.31763 113.977 0.576456C113.21 -0.247074 111.983 -0.164721 111.292 0.658809Z" fill="#C8CF4C"/>
<path d="M102.472 0.576451C101.705 -0.164725 100.478 -0.164725 99.7872 0.658804L91.1201 10.5412C90.4298 11.3647 90.4298 12.6823 91.1968 13.4235C91.5803 13.8353 92.0405 14 92.5007 14C93.0376 14 93.4978 13.7529 93.8813 13.3412L102.548 3.4588C103.239 2.63527 103.239 1.31763 102.472 0.576451Z" fill="#C8CF4C"/>
<path d="M90.89 0.576456C90.123 -0.164721 88.8958 -0.164721 88.2055 0.658809L80.8423 9.14116L73.4023 0.658809C72.712 -0.164721 71.4848 -0.247074 70.7178 0.576456C69.9508 1.31763 69.8741 2.63528 70.6411 3.45881L79.3083 13.3412C79.6918 13.7529 80.2287 14 80.6889 14C80.7656 14 80.7656 14 80.8423 14C80.919 14 80.919 14 80.9957 14C81.5326 14 81.9928 13.7529 82.3763 13.3412L91.0434 3.45881C91.7337 2.63528 91.657 1.31763 90.89 0.576456Z" fill="#C8CF4C"/>
<path d="M47.7077 0.658809C47.0174 -0.164721 45.7902 -0.247074 45.0232 0.576456C44.2562 1.31763 44.1795 2.63528 44.9465 3.45881L53.6136 13.3412C53.9971 13.7529 54.534 14 54.9942 14C55.4544 14 55.9146 13.8353 56.2981 13.4235C57.0652 12.6823 57.1419 11.3647 56.3748 10.5412L47.7077 0.658809Z" fill="#C8CF4C"/>
<path d="M59.2894 0.658809C58.5991 -0.164721 57.3719 -0.247074 56.6049 0.576456C55.8379 1.31763 55.7612 2.63528 56.5282 3.45881L65.1954 13.3412C65.5789 13.7529 66.1158 14 66.576 14C67.0362 14 67.4964 13.8353 67.8799 13.4235C68.6469 12.6823 68.7236 11.3647 67.9566 10.5412L59.2894 0.658809Z" fill="#C8CF4C"/>
</g>
<defs>
<clipPath id="clip0_0_165">
<rect width="159" height="14" fill="white"/>
</clipPath>
</defs>
</svg>
