<svg xmlns="http://www.w3.org/2000/svg" viewBox="0 0 57 57.01"><g id="Layer_2" data-name="Layer 2"><g id="Layer_1-2" data-name="Layer 1"><path d="M44.36,12.76A23.45,23.45,0,1,0,5.24,38.2,22.66,22.66,0,0,0,20.4,46.72a23.21,23.21,0,0,0,18.79-5.85l.3-.25.34.44L54.41,55.67c.37.38.74.75,1.12,1.11a.8.8,0,0,0,.91.15.83.83,0,0,0,.56-.77c0-.3-.09-.54-.43-.88L45.44,44.19l-4.79-4.78.24-.26a23.78,23.78,0,0,0,4.78-8.08,23.46,23.46,0,0,0-1.31-18.31ZM7.25,37.84A21.69,21.69,0,0,1,37.86,7.22l.29.27-.28.28L7.51,38.13Zm31.87.7a21.1,21.1,0,0,1-15.7,6.63H22.6A21.37,21.37,0,0,1,9.11,39.73l-.29-.27.28-.28L39.47,8.81l.26.29C47.19,17.27,46.92,30.47,39.12,38.54Z"/><path d="M24.37,12.92a4.93,4.93,0,0,1,3.11,1.54L29,13l-.17-.18a6.84,6.84,0,0,0-3.72-1.84.56.56,0,0,1-.5-.62c0-.7,0-1.41,0-2.12V7.55H22.37v3.17l-.27.08-.17,0a7.39,7.39,0,0,0-2,.58,6.86,6.86,0,0,0-3.61,3.43,7.29,7.29,0,0,0-.56,4,5.08,5.08,0,0,0,3.13,4.28l1.82-1.81-.12-.06a4.39,4.39,0,0,1-1.93-1.72,4.18,4.18,0,0,1-.45-2.71,4.26,4.26,0,0,1,3.13-3.68A7.84,7.84,0,0,1,24.37,12.92Z"/><path d="M31.44,32.2a7.69,7.69,0,0,0,.45-4,5.32,5.32,0,0,0-1.29-2.83,6.83,6.83,0,0,0-2.37-1.66l-1.58,1.57-.18.18.49.22a4.13,4.13,0,0,1,2.58,3.83A5.2,5.2,0,0,1,29,32.24a4.19,4.19,0,0,1-2.66,2,9.89,9.89,0,0,1-3.8.29,5.84,5.84,0,0,1-3-1.15c-.17-.13-.33-.27-.48-.41l-1.58,1.58a8.69,8.69,0,0,0,4.61,2.05l.32,0v2.78h2.21V36.66l.31-.06L25,37h0v-.38l.18,0a9,9,0,0,0,3.44-1.18A6.46,6.46,0,0,0,31.44,32.2Z"/></g></g></svg>