<svg width="116" height="24" viewBox="0 0 116 24" fill="none" xmlns="http://www.w3.org/2000/svg">
<g clip-path="url(#clip0_0_242)">
<path d="M112.225 23.5393C114.31 23.5393 116 21.8481 116 19.762C116 17.6758 114.31 15.9846 112.225 15.9846C110.141 15.9846 108.451 17.6758 108.451 19.762C108.451 21.8481 110.141 23.5393 112.225 23.5393Z" fill="#C8CF4C"/>
<path d="M20.2079 16.5375C20.2079 21.4664 16.7556 23.954 9.80476 23.954C3.08413 24 -0.184124 21.3282 2.71481e-06 16.0307H4.00476C4.18889 19.1632 6.21429 20.7294 10.127 20.7294C14.0397 20.7294 15.973 19.6699 15.973 17.5048C16.0651 16.0768 15.0524 15.1094 12.7968 14.6027C12.0143 14.4185 9.80476 13.8196 6.21429 12.8062C2.66984 11.7927 0.828574 9.76587 0.782542 6.72556C0.782542 2.53362 3.77461 0.276424 9.80476 0.0921631C15.4206 0.0921631 18.5968 2.25723 19.3333 6.58736H16.5254C15.5587 6.63343 14.9143 6.26491 14.546 5.4818C13.9937 4.09984 12.3365 3.45493 9.62064 3.45493C6.49048 3.50099 4.9254 4.51443 4.9254 6.44917C4.9254 7.69293 5.8 8.56817 7.59524 9.07489C9.39048 9.58161 11.8302 10.2726 14.8683 11.1018C18.4587 12.1152 20.2079 13.9578 20.2079 16.5375Z" fill="white"/>
<path d="M33.6952 9.02882C35.7206 8.70637 36.7794 7.69293 36.7794 6.03458C36.7794 4.14591 34.9841 3.2246 31.3937 3.31673C28.2635 3.3628 26.6984 4.4223 26.6984 6.49523H22.6016C22.6016 2.3033 25.5476 0.138228 31.4857 0.0921631C37.6079 0.0921631 40.7381 1.93477 40.7841 5.61999V15.3398C40.7841 18.2419 39.9556 20.4069 38.2984 21.835C36.6413 23.263 33.8794 23.954 30.0127 23.954C24.2587 23.954 21.4508 21.5586 21.5889 16.7678C21.681 12.9904 24.0746 10.6872 28.7698 9.858C30.2429 9.67374 31.9 9.39735 33.6952 9.02882ZM34.8921 11.8388C34.0175 12.0691 32.6825 12.2995 30.7952 12.5298C27.573 12.9904 25.9159 14.4645 25.9159 16.906C25.9159 19.3474 27.527 20.6373 30.7032 20.6373C34.754 20.6373 36.7794 18.8868 36.7794 15.3398V11.0096C36.3651 11.3321 35.7667 11.6545 34.8921 11.8388Z" fill="white"/>
<path d="M46.7683 13.4972C47.0905 18.0576 49.3 20.3148 53.3508 20.3148C55.7905 20.1306 57.4476 19.3014 58.2762 17.8273C58.7825 16.906 59.5651 16.4453 60.5778 16.4453H63.1556C61.9587 21.4664 58.5984 23.954 53.0286 23.954C46.3079 23.954 42.9016 19.9924 42.8095 12.0231C42.8095 4.05378 46.3079 0.0921631 53.2587 0.0921631C60.5317 0.0921631 63.9381 4.56049 63.4778 13.4972C63.6159 13.4972 58.046 13.4972 46.7683 13.4972ZM53.2127 3.68525C49.4381 3.68525 47.2746 5.85032 46.7683 10.1805C55.4222 10.1805 59.6571 10.1805 59.5651 10.1805C59.1048 5.85032 56.9873 3.68525 53.2127 3.68525Z" fill="white"/>
<path d="M69.4159 9.48944V23.5854H65.4111V9.90403C65.3191 3.3167 68.5873 0 75.2159 0C81.7984 0 85.0667 3.3167 85.0206 9.90403V23.5393H83.5016C81.7984 23.5393 80.9238 22.7102 80.9238 21.0518V9.48944C80.9238 5.5739 79.0365 3.59309 75.2159 3.59309C71.3492 3.59309 69.4159 5.52783 69.4159 9.48944Z" fill="white"/>
<path d="M99.0143 9.02882C101.04 8.70637 102.098 7.69293 102.098 6.03458C102.098 4.09984 100.303 3.17854 96.7127 3.31673C93.5826 3.3628 92.0175 4.4223 92.0175 6.49523H87.9206C87.9206 2.3033 90.8667 0.138228 96.8048 0.0921631C102.927 0.0921631 106.057 1.93477 106.103 5.61999V15.3398C106.103 18.2419 105.275 20.4069 103.617 21.835C101.96 23.263 99.1984 23.954 95.3318 23.954C89.5778 23.954 86.7699 21.5586 86.9079 16.7678C87 12.9904 89.3937 10.6872 94.0889 9.858C95.5619 9.67374 97.173 9.39735 99.0143 9.02882ZM100.211 11.8388C99.3365 12.0691 98.0016 12.2995 96.1143 12.5298C92.8921 12.9904 91.2349 14.4645 91.2349 16.906C91.2349 19.3474 92.846 20.6373 96.0222 20.6373C100.073 20.6373 102.098 18.8868 102.098 15.3398V11.0096C101.684 11.3321 101.04 11.6545 100.211 11.8388Z" fill="white"/>
</g>
<defs>
<clipPath id="clip0_0_242">
<rect width="116" height="24" fill="white"/>
</clipPath>
</defs>
</svg>
